<mxfile host="app.diagrams.net" modified="2023-09-19T02:37:49.182Z" agent="Mozilla/5.0 (X11; CrOS x86_64 14541.0.0) AppleWebKit/537.36 (KHTML, like Gecko) Chrome/116.0.0.0 Safari/537.36" version="21.7.5" etag="wUVYgHxdPqT8XiHCIa5o" type="github">
  <diagram name="Page-1" id="-sJU9y7mod3O4DDYux-c">
    <mxGraphModel>
      <root>
        <mxCell id="0" />
        <mxCell id="1" parent="0" />
      </root>
    </mxGraphModel>
  </diagram>
</mxfile>
